<svg xmlns="http://www.w3.org/2000/svg" width="40" height="40" fill="none"><g fill="#000" clip-path="url(#a)"><path d="m.453 37.342.519 1.167 18.606-7.715 3.242.389 1.167 3.566-1.556 1.491c-.584.518-.778 1.361-.454 2.14l.649 1.62 10.761-4.214-.583-1.556c-.26-.778-.973-1.232-1.815-1.232h-2.14l-1.167-2.787 2.853-1.427a1.948 1.948 0 0 0 .972-2.398l-3.695-9.92c-.389-1.037-1.491-1.49-2.529-1.167 0 0-.064 0-.064.065l-2.723 1.167-.39-.972 1.492-1.75a7.63 7.63 0 0 0 1.88-4.15l1.88-2.269c1.232-1.426.973-3.565-.454-4.797-.26-.195-.518-.39-.778-.519a3.221 3.221 0 0 0-2.204-.194l-.195-.584C23.403.259 22.238-.26 21.264.129L7.584 5.056c-1.037.39-1.555 1.491-1.166 2.464v.065l.324.842c-1.686.778-2.464 2.723-1.88 4.409.454 1.297 1.62 2.204 2.982 2.399l3.047.324c1.232.908 2.723 1.491 4.214 1.62l2.14.195.389.973c-.454.259-.779.713-.908 1.296l-.454 2.204L.453 28.266l.454 1.231 9.077-3.63 2.204 6.613L.453 37.342Zm31.054-2.723.13.389-8.299 3.306-.194-.389a.899.899 0 0 1 .13-.713l2.204-2.074 2.788-.908h2.593c.324 0 .519.13.648.39Zm-4.084-1.556-2.334.778-.843-2.463c.39.064.713 0 1.037-.195l1.103-.518 1.037 2.398Zm-1.75-16.726c.324-.13.713 0 .842.324l.519 1.361-3.177 1.038.39 1.232 3.176-1.038.778 2.075-3.047 1.037.389 1.232 3.112-1.037.778 2.074-2.982.973.389 1.232 3.046-1.038.325.843c.13.324 0 .648-.325.778l-5.121 2.528c-.13.065-.26.065-.39.065l-4.407-.519-2.4-7.196.454-2.398c.065-.195.195-.39.39-.454l7.26-3.112ZM25.607 3.24c1.037.454 1.556 1.686 1.102 2.788-.065.194-.195.324-.324.518l-.778.973a9.68 9.68 0 0 0-.39-1.88l-.842-2.529c.454-.064.843 0 1.232.13Zm-19.45 9.27c-.388-1.101.065-2.268 1.103-2.787l.907 2.204a9.393 9.393 0 0 0 1.297 2.205l-1.362-.13c-.907-.065-1.685-.648-1.945-1.491Zm9.206 3.437c-2.658-.26-4.992-1.945-5.964-4.473l-1.685-4.28c-.13-.324 0-.713.324-.842l13.679-4.927a.716.716 0 0 1 .518 0c.13.065.26.194.325.389l1.426 4.279c.778 2.398.26 4.991-1.361 6.872l-2.01 2.334.583 1.555-2.334.973-.648-1.621-2.853-.26Zm-4.149 9.4 1.491-.583 1.621 4.927 1.232-.389-1.686-5.057 2.594-1.037 2.204 6.548-5.252 2.204-2.204-6.613ZM32.48 11.344v.648h1.296v-.648a3.21 3.21 0 0 1 3.242-3.242V6.806a3.21 3.21 0 0 1-3.242-3.242v-.648H32.48v.648a3.21 3.21 0 0 1-3.242 3.242v1.296a3.21 3.21 0 0 1 3.242 3.242Zm.648-5.446c.39.649.908 1.167 1.556 1.556a4.472 4.472 0 0 0-1.556 1.556 4.47 4.47 0 0 0-1.556-1.556 4.467 4.467 0 0 0 1.556-1.556Z"/><path d="M3.954 24.31v.65h1.297v-.65a3.21 3.21 0 0 1 3.242-3.24v-1.297A3.21 3.21 0 0 1 5.25 16.53v-.648H3.954v.648a3.21 3.21 0 0 1-3.241 3.242v1.296a3.21 3.21 0 0 1 3.241 3.242Zm.649-5.445c.389.648.907 1.167 1.556 1.556a4.47 4.47 0 0 0-1.556 1.556 4.47 4.47 0 0 0-1.556-1.556 4.468 4.468 0 0 0 1.556-1.556ZM36.37 16.531v-.648h-1.297v.648a3.21 3.21 0 0 1-3.242 3.242v1.296a3.21 3.21 0 0 1 3.242 3.242v.648h1.296v-.648a3.21 3.21 0 0 1 3.242-3.242v-1.296a3.21 3.21 0 0 1-3.242-3.242Zm-.649 5.446a4.47 4.47 0 0 0-1.556-1.556 4.468 4.468 0 0 0 1.556-1.556c.39.648.908 1.167 1.556 1.556a4.471 4.471 0 0 0-1.556 1.556ZM19.708 11.539l.908.907c3.565-3.565.259-9.011.064-9.206l-1.102.713c.065 0 2.982 4.733.13 7.586Z"/></g><defs><clipPath id="a"><path fill="#fff" d="M0 0h40v40H0z"/></clipPath></defs></svg>