<svg xmlns="http://www.w3.org/2000/svg" width="40" height="40" fill="none"><path fill="#000" d="M39.992 12.297c0-.684-.27-1.288-.778-1.745l-6.08-5.465c-.757-.68-1.71-1.374-3.05-1.374h-.002c-1.342 0-2.295.696-3.051 1.376l-6.076 5.47a2.289 2.289 0 0 0-.777 1.745l.003 7.02h-4.035c.73-1.517 1.239-3.913.668-5.707-.402-1.263-1.288-2.095-2.56-2.407a.625.625 0 0 0-.759.466c-.07.301-.133.584-.193.849-.751 3.306-.848 3.73-2.921 5.086-1.465.957-1.569 1.08-2.48 2.41l-.31.451c-.37.534-.841.775-1.527.78H6.01v-.149c0-.778-.633-1.412-1.412-1.412H1.412c-.779 0-1.412.634-1.412 1.412v13.77c0 .78.633 1.413 1.412 1.413h3.187c.779 0 1.412-.634 1.412-1.412v-.64c.282.097.563.202.853.31 1.42.53 3.03 1.132 5.419 1.132h8.296c.354 0 .69-.074.996-.206.3.135.625.206.958.206h.001l15.12-.005A2.35 2.35 0 0 0 40 33.323l-.008-21.026ZM4.76 34.874a.164.164 0 0 1-.162.161H1.412a.164.164 0 0 1-.162-.161v-13.77c0-.088.074-.162.162-.162h3.187c.088 0 .162.073.162.161v13.77Zm7.522-.448c-2.164 0-3.596-.535-4.981-1.053a29.827 29.827 0 0 0-1.291-.459V22.503h.06c1.092-.01 1.95-.454 2.548-1.32l.313-.456c.84-1.225.84-1.225 2.133-2.07 2.497-1.632 2.68-2.443 3.456-5.855l.034-.154c.515.273.867.719 1.068 1.348.59 1.852-.34 4.703-1.068 5.543a.625.625 0 0 0 .472 1.034h7.146c.696 0 1.262.567 1.262 1.263s-.566 1.263-1.262 1.263h-4.927a.625.625 0 0 0 0 1.25h5.959c.696 0 1.263.566 1.263 1.263 0 .696-.567 1.263-1.263 1.263h-5.959a.625.625 0 0 0 0 1.25h5.31c.696 0 1.263.566 1.263 1.262 0 .697-.567 1.263-1.263 1.263h-5.31a.625.625 0 0 0 0 1.25h3.334c.696 0 1.262.567 1.262 1.263 0 .697-.566 1.263-1.262 1.263h-8.297Zm25.37-.005-14.902.005c.216-.372.341-.803.341-1.263 0-.463-.125-.897-.345-1.27a2.516 2.516 0 0 0 2.322-2.506c0-.613-.221-1.175-.587-1.612a2.514 2.514 0 0 0 1.236-2.163c0-1.03-.622-1.916-1.51-2.304a2.5 2.5 0 0 0 .477-1.472 2.516 2.516 0 0 0-2.512-2.513h-.742l-.003-7.02c0-.329.119-.595.363-.815l6.076-5.47c.833-.75 1.475-1.055 2.215-1.055h.001c.74 0 1.382.305 2.215 1.054l6.08 5.465c.245.22.364.486.364.815l.008 21.027c0 .604-.492 1.096-1.096 1.097Zm-3.816-8.458c.091.754-.11 1.442-.585 1.99-.557.645-1.484 1.077-2.538 1.198v.795a.625.625 0 1 1-1.25 0v-.804c-1.561-.214-2.775-1.201-3.126-2.61a.625.625 0 1 1 1.213-.303c.324 1.298 1.63 1.732 2.651 1.706.877-.02 1.703-.334 2.105-.8.244-.281.338-.616.29-1.022-.117-.96-.92-1.512-2.6-1.788-2.675-.44-3.298-1.796-3.35-2.857-.071-1.47.958-2.702 2.56-3.066.085-.019.17-.035.257-.049v-.813a.625.625 0 0 1 1.25 0v.808c1.145.17 2.273.832 2.837 2.176a.625.625 0 1 1-1.152.483c-.542-1.29-1.855-1.626-2.915-1.385-.8.181-1.639.746-1.588 1.785.016.326.064 1.317 2.303 1.684.83.136 3.356.551 3.638 2.872Zm-3.753-13.87a2.228 2.228 0 0 0 2.226-2.225 2.228 2.228 0 0 0-2.226-2.226 2.228 2.228 0 0 0-2.226 2.226c0 1.227.999 2.226 2.226 2.226Zm0-3.201a.977.977 0 0 1 0 1.952.977.977 0 0 1 0-1.952Z"/></svg>