<svg xmlns="http://www.w3.org/2000/svg" width="20" height="20" fill="none"><g fill="#1E8E31"><path d="M18.37 14.6c-.546-.458-3.75-2.487-4.282-2.394-.25.045-.441.258-.953.868-.237.3-.497.582-.777.842a6.723 6.723 0 0 1-1.484-.55 9.188 9.188 0 0 1-4.24-4.241 6.723 6.723 0 0 1-.55-1.484c.26-.28.541-.54.842-.777.61-.512.823-.702.868-.953.093-.534-1.938-3.737-2.394-4.283-.191-.226-.365-.378-.588-.378-.644 0-3.562 3.607-3.562 4.075 0 .038.063 3.794 4.806 8.62 4.825 4.742 8.58 4.805 8.619 4.805.467 0 4.075-2.918 4.075-3.563 0-.222-.152-.396-.38-.587ZM14.375 9.375h1.25a5.006 5.006 0 0 0-5-5v1.25a3.754 3.754 0 0 1 3.75 3.75Z"/><path d="M17.5 9.375h1.25a8.134 8.134 0 0 0-8.125-8.125V2.5A6.883 6.883 0 0 1 17.5 9.375Z"/></g></svg>