<svg xmlns="http://www.w3.org/2000/svg" width="40" height="40" fill="none"><path stroke="#1E8E31" stroke-linecap="round" stroke-linejoin="round" stroke-miterlimit="10" stroke-width="1.563" d="m13.365 29.762.063-.458a2.708 2.708 0 0 0-1.553-2.84l-4.24-1.917a1.857 1.857 0 0 1-1.003-2.222 1.819 1.819 0 0 1 2.427-1.182l5.939 2.419a4.406 4.406 0 0 1 2.722 3.854l.24 7.442H11.63a3.728 3.728 0 0 0-1.594-2.673l-6.079-4.159a4.417 4.417 0 0 1-1.875-3.053L.8 15.06a1.982 1.982 0 0 1 1.407-2.178 1.954 1.954 0 0 1 2.435 1.46l1.912 8.54M26.634 29.766l-.063-.458a2.708 2.708 0 0 1 1.554-2.84l4.24-1.917a1.857 1.857 0 0 0 1.003-2.222 1.819 1.819 0 0 0-2.427-1.182L25 23.566a4.406 4.406 0 0 0-2.721 3.854l-.24 7.442h6.33c.12-1.082.7-2.06 1.595-2.673l6.078-4.159a4.417 4.417 0 0 0 1.876-3.053l1.28-9.912a1.982 1.982 0 0 0-1.407-2.178 1.954 1.954 0 0 0-2.434 1.46l-1.913 8.555M20.75 6.578l-.75.749-.748-.75a4.907 4.907 0 0 0-6.94 6.94l5.871 5.871a2.57 2.57 0 0 0 3.635 0l5.87-5.87a4.907 4.907 0 1 0-6.939-6.94Z"/></svg>