<svg xmlns="http://www.w3.org/2000/svg" width="40" height="40" fill="none"><g fill="#1E8E31"><path d="M16.25 11.875h1.875v1.25H16.25v-1.25ZM21.875 11.875h1.875v1.25h-1.875v-1.25ZM20.032 16.085l.397.132.395-1.186-.397-.132a.624.624 0 0 1-.338-.914l1.073-1.79-1.072-.642-1.073 1.788a1.876 1.876 0 0 0 1.015 2.744ZM17.92 18.738a3.74 3.74 0 0 0 4.161 0l.142-.094-.694-1.04-.141.094a2.493 2.493 0 0 1-2.774 0l-.141-.095-.694 1.04.142.095ZM9.996 38.672l.625-4.999 1.24.155-.625 4.999-1.24-.155Z"/><path d="M36.876 26.25H33.75v-1.876a1.876 1.876 0 0 0-1.875-1.875h-2.5a1.877 1.877 0 0 0-1.875 1.875v.322l-1.471-.46a1.866 1.866 0 0 1-1.29-1.48l-.365-2.186a7.497 7.497 0 0 0 1.57-2.677l.836-2.509a2.473 2.473 0 0 0 .869-2.41l.95-1.901c.074-.147.133-.3.179-.458l.79-2.768a2.649 2.649 0 0 0-1.08-2.94l-.303-.202a1.402 1.402 0 0 1-.39-.39l-.422-.632a2.652 2.652 0 0 0-2.21-1.184h-1.986c-.304 0-.6-.099-.844-.281l-.181-.136a4.196 4.196 0 0 0-4.418-.398L16.4 2.35c-.195.097-.41.148-.629.148h-1.343a2.674 2.674 0 0 0-1.594.532l-.879.659a2.651 2.651 0 0 0-.983 2.77l.08.319a1.41 1.41 0 0 1-.195 1.122 2.65 2.65 0 0 0 0 2.947l.429.643c.032.048.061.099.087.151a.64.64 0 0 0 .042.071l.92 1.358a2.472 2.472 0 0 0 .885 2.313l.836 2.51c.331.99.866 1.903 1.57 2.676l-.364 2.185a1.865 1.865 0 0 1-1.29 1.482l-5.08 1.587a6.891 6.891 0 0 0-4.661 5.07l-1.715 7.72 1.22.271 1.715-7.72a5.64 5.64 0 0 1 3.814-4.148l1.942-.607 4.012 3.439a.626.626 0 0 0 .813 0l1.65-1.415c.093.229.219.442.373.633l-1.793 9.567 1.228.23 1.688-9.004a2.498 2.498 0 0 0 3.14-1.426l.183.156v8.284a1.877 1.877 0 0 0 1.875 1.875h12.5a1.877 1.877 0 0 0 1.875-1.875v-8.75a1.876 1.876 0 0 0-1.875-1.875Zm.625 1.874V30H23.75v-1.875a.625.625 0 0 1 .625-.625h12.5a.626.626 0 0 1 .625.625Zm-8.125-4.375h2.5a.626.626 0 0 1 .625.625v1.875h-3.75v-1.875a.625.625 0 0 1 .625-.625Zm-3.72 1.68 1.845.577v.243h-3.125a1.875 1.875 0 0 0-1.613.92l-1.287-1.104a6.08 6.08 0 0 0 2.067-.952l.755-.54c.37.4.839.695 1.359.857Zm-9.161-2.468.233-1.399c.462.34.962.627 1.49.853l1.537.659a.626.626 0 0 0 .492 0l1.537-.659a7.481 7.481 0 0 0 1.49-.853l.232 1.399c.032.184.08.364.142.54l-.832.594a4.844 4.844 0 0 1-5.63 0l-.833-.594a3.16 3.16 0 0 0 .142-.54Zm-4.024-11.917a2.653 2.653 0 0 0-.145-.247l-.429-.642a1.402 1.402 0 0 1 0-1.561 2.66 2.66 0 0 0 .367-2.118l-.08-.32a1.405 1.405 0 0 1 .521-1.466l.879-.66c.244-.181.54-.28.844-.28h1.343c.412-.001.82-.097 1.188-.281l1.335-.667a2.952 2.952 0 0 1 3.109.28l.18.136c.461.344 1.02.53 1.595.531h1.985a1.404 1.404 0 0 1 1.17.627l.422.632c.195.292.445.543.737.737l.303.202a1.403 1.403 0 0 1 .572 1.557l-.79 2.767a1.41 1.41 0 0 1-.095.243l-.57 1.139-.115-.116-.578-1.735a.625.625 0 0 0-.593-.428 3.053 3.053 0 0 1-2.848-1.928l-.322-.804a.625.625 0 0 0-.927-.288l-.93.62a3.115 3.115 0 0 1-1.734.525h-.325c-.793 0-1.572.216-2.251.624l-1.045.627a4.378 4.378 0 0 0-1.9 2.368l-.14.419-.177.177-.06.063-.496-.733Zm1.873 3.758a.625.625 0 0 0-.247-.323 1.222 1.222 0 0 1-.186-1.881l.282-.282a.624.624 0 0 0 .15-.244l.187-.559a3.127 3.127 0 0 1 1.357-1.691l1.045-.627a3.126 3.126 0 0 1 1.608-.446h.325a4.36 4.36 0 0 0 2.427-.734l.29-.193.035.088a4.293 4.293 0 0 0 3.55 2.69l.49 1.472c.032.092.083.176.152.244l.281.282a1.223 1.223 0 0 1-.186 1.881.625.625 0 0 0-.246.323l-.899 2.696a6.255 6.255 0 0 1-3.467 3.768L20 21.819l-1.291-.553a6.254 6.254 0 0 1-3.468-3.768l-.898-2.696Zm1.282 13.75-3.011-2.582 1.73-.54c.52-.162.988-.458 1.359-.857l.755.54a6.08 6.08 0 0 0 2.067.953l-2.9 2.485Zm4.375.197a1.25 1.25 0 0 1-1.25-1.23l1.25-1.071 1.249 1.07A1.251 1.251 0 0 1 20 28.75Zm16.875 8.75h-12.5a.626.626 0 0 1-.625-.625V31.25H37.5v5.625a.625.625 0 0 1-.625.625Z"/></g></svg>