<svg xmlns="http://www.w3.org/2000/svg" width="40" height="40" fill="none"><g fill="#1E8E31"><path d="M3.308 34.192a.625.625 0 0 0 .442.183h8.125a.625.625 0 0 0 .442-.183l1.433-1.433v5.366a.625.625 0 0 0 .625.625h11.25a.625.625 0 0 0 .625-.625v-5.366l1.433 1.433a.625.625 0 0 0 .442.183h8.125a.625.625 0 0 0 .442-.183l1.875-1.875a.625.625 0 0 0 .183-.442V30a.624.624 0 0 0-.625-.625h-2.5A.624.624 0 0 0 35 28.75h-1.25a.624.624 0 0 0-.52.278l-.903 1.355-3.108-2.071-1.416-2.48a5.595 5.595 0 0 0-3.339-2.617l-1.419-.406c.459-.636.706-1.4.705-2.184V17.5a3.223 3.223 0 0 0-2.206-3.06l-1.64-.547a2.777 2.777 0 0 0-3.654 2.633v4.099c0 .784.246 1.548.705 2.184l-1.42.406a5.595 5.595 0 0 0-3.338 2.617l-1.416 2.48-3.108 2.071-.903-1.355a.624.624 0 0 0-.52-.278H5a.625.625 0 0 0-.625.625h-2.5A.625.625 0 0 0 1.25 30v1.875c0 .166.066.325.183.442l1.875 1.875Zm29.817-2.753.96-1.439h.29v1.875h1.25v-1.25H37.5v.991l-1.509 1.509h-2.866v-1.686ZM17.5 16.526a1.527 1.527 0 0 1 2.009-1.448l1.64.547a1.973 1.973 0 0 1 1.25 1.25H17.5v-.349Zm0 1.599h5v2.5a2.5 2.5 0 0 1-5 0v-2.5Zm2.387 8.75h.226l1.084 5.42L20 33.49l-1.197-1.196 1.084-5.42Zm-.618-2.572c.483.096.98.096 1.462 0l-.53 1.322h-.403l-.529-1.322ZM8.125 31.584l3.472-2.314a.626.626 0 0 0 .196-.21l1.49-2.607a4.35 4.35 0 0 1 2.596-2.036l1.875-.536.972 2.429-1.214 6.067a.626.626 0 0 0 .171.565l1.875 1.875a.625.625 0 0 0 .884 0l1.875-1.875a.625.625 0 0 0 .17-.565l-1.213-6.067.972-2.429 1.875.536a4.351 4.351 0 0 1 2.596 2.036l1.49 2.607a.626.626 0 0 0 .196.21l3.472 2.314v1.541h-3.491l-2.317-2.317A.625.625 0 0 0 25 31.25v6.25H15v-6.25a.625.625 0 0 0-1.067-.442l-2.317 2.317H8.125v-1.54ZM2.5 30.625h1.875v1.25h1.25V30h.29l.96 1.44v1.685H4.009L2.5 31.616v-.991Z"/><path d="M1.875 25.625H3.75V27.5a.625.625 0 0 0 .625.625h5A.625.625 0 0 0 10 27.5v-1.875h1.875A.625.625 0 0 0 12.5 25v-2.5a3.129 3.129 0 0 0-3.125-3.125h-5A3.129 3.129 0 0 0 1.25 22.5V25a.625.625 0 0 0 .625.625Zm6.875 1.25H5v-2.5a1.875 1.875 0 1 1 3.75 0v2.5ZM2.5 22.5a1.877 1.877 0 0 1 1.875-1.875h5A1.877 1.877 0 0 1 11.25 22.5v1.875H10a3.125 3.125 0 1 0-6.25 0H2.5V22.5Z"/><path d="M6.875 25.625a.625.625 0 1 0 0-1.25.625.625 0 0 0 0 1.25ZM32.5 16.25a1.877 1.877 0 0 0-1.875 1.875v7.5A1.877 1.877 0 0 0 32.5 27.5h3.75a1.877 1.877 0 0 0 1.875-1.875v-7.5a1.877 1.877 0 0 0-1.875-1.875H32.5Zm4.375 1.875v7.5a.625.625 0 0 1-.625.625H32.5a.625.625 0 0 1-.625-.625v-7.5a.625.625 0 0 1 .625-.625h.366l.442.442a.625.625 0 0 0 .442.183H35a.625.625 0 0 0 .442-.183l.442-.442h.366a.625.625 0 0 1 .625.625ZM5.625 18.125h7.5A1.877 1.877 0 0 0 15 16.25V8.018a1.862 1.862 0 0 0-.55-1.326l-2.392-2.393a1.862 1.862 0 0 0-1.326-.549H5.625A1.877 1.877 0 0 0 3.75 5.625V16.25a1.877 1.877 0 0 0 1.875 1.875Zm6.25-12.241.991.991h-.991v-.991ZM5 5.625A.626.626 0 0 1 5.625 5h5v2.5a.625.625 0 0 0 .625.625h2.5v8.125a.625.625 0 0 1-.625.625h-7.5A.626.626 0 0 1 5 16.25V5.625Z"/><path d="M12.5 14.375H6.25v1.25h6.25v-1.25ZM12.5 11.875H8.75v1.25h3.75v-1.25ZM7.5 11.875H6.25v1.25H7.5v-1.25ZM12.5 9.375h-1.875v1.25H12.5v-1.25ZM9.375 9.375H6.25v1.25h3.125v-1.25ZM9.375 6.875H6.25v1.25h3.125v-1.25ZM33.221 2.943l-.807-1.383a.626.626 0 0 0-.982-.127l-6.178 6.178-2.41 1.205a.621.621 0 0 0-.226.193l-.005.007-.001.001-1.472 2.036a.625.625 0 0 0-.053.646l.853 1.706a.626.626 0 0 0 .56.345h2.113l2.327 4.654a.623.623 0 0 0 .839.28l1.25-.625a.625.625 0 0 0 .345-.559v-3.125a.625.625 0 0 0-.066-.28l-.913-1.826 8.026-2.293a.625.625 0 0 0 .368-.916L35.686 7.17l.091-.061a2.445 2.445 0 0 0-2.556-4.165ZM22.886 12.5l-.511-1.021.652-.902.961 1.923h-1.102Zm1.077-2.845 1.382-.691 1.316 2.631-1.382.691-1.316-2.631Zm4.161 7.459-.345.172-1.941-3.882 1.382-.69.904 1.809v2.59Zm-.298-5.982-1.441-2.884 5.358-5.358 3.561 6.105-7.478 2.137Zm7.62-6.674a1.194 1.194 0 0 1-.362 1.61l-.03.019-1.203-2.064a1.194 1.194 0 0 1 1.595.435Z"/></g></svg>