<svg xmlns="http://www.w3.org/2000/svg" width="40" height="40" fill="none"><g clip-path="url(#a)"><path fill="#1E8E31" d="M24.14 33.36a.781.781 0 0 0-.78.78v4.298H16.68V26.416a.781.781 0 0 0-1.562 0v12.803c0 .431.35.781.781.781h8.241c.431 0 .781-.35.781-.78v-5.08a.781.781 0 0 0-.781-.78ZM24.693 30.723a.787.787 0 0 0-.552-.229.787.787 0 0 0-.553.229.787.787 0 0 0-.229.552.784.784 0 0 0 1.334.552.787.787 0 0 0 .229-.552.787.787 0 0 0-.23-.552ZM24.14 25.635a.781.781 0 0 0-.78.781v1.84a.781.781 0 1 0 1.562 0v-1.84a.781.781 0 0 0-.781-.781Z"/><path fill="#1E8E31" d="M27.257 11.266c-.892-.9-2.351-.934-3.252-.074a2.285 2.285 0 0 0-.713 1.639 2.285 2.285 0 0 0 .674 1.655 5.82 5.82 0 0 1 1.716 4.142v.047a3.903 3.903 0 0 1-2.15 3.442 4.101 4.101 0 0 0 .595-2.134v-.608A4.131 4.131 0 0 0 20 15.248a4.131 4.131 0 0 0-4.126 4.127v.608c0 .78.217 1.51.595 2.134-1.264-.642-2.139-1.942-2.15-3.439v-.05a5.82 5.82 0 0 1 1.716-4.142c.442-.442.681-1.03.674-1.655a2.286 2.286 0 0 0-.714-1.639c-.9-.86-2.36-.826-3.252.074a10.397 10.397 0 0 0-3.028 7.362c0 2.795 1.088 5.422 3.064 7.398a.781.781 0 0 0 1.105-1.105 8.841 8.841 0 0 1-2.607-6.293c0-2.361.915-4.585 2.577-6.262.297-.3.774-.32 1.063-.044a.735.735 0 0 1 .23.527.733.733 0 0 1-.217.532 7.372 7.372 0 0 0-2.174 5.247v.06c.024 2.986 2.486 5.416 5.49 5.416h1.536a4.167 4.167 0 0 0 .437 0h1.537c3.003 0 5.465-2.43 5.488-5.42v-.056a7.372 7.372 0 0 0-2.173-5.247.733.733 0 0 1-.216-.532.735.735 0 0 1 .229-.527c.29-.275.766-.256 1.063.044a8.844 8.844 0 0 1 2.576 6.262 8.841 8.841 0 0 1-2.606 6.293.781.781 0 0 0 1.104 1.105 10.393 10.393 0 0 0 3.065-7.398c0-2.776-1.076-5.39-3.029-7.362Zm-4.693 8.717a2.567 2.567 0 0 1-2.399 2.559h-.33a2.567 2.567 0 0 1-2.4-2.559v-.608A2.567 2.567 0 0 1 20 16.811a2.567 2.567 0 0 1 2.564 2.564v.608ZM8.642 30.659a3.74 3.74 0 0 0 1.202-2.748v-.54a3.754 3.754 0 0 0-3.75-3.75 3.754 3.754 0 0 0-3.75 3.75v.54a3.74 3.74 0 0 0 1.202 2.748A6.1 6.1 0 0 0 0 36.192v3.028c0 .431.35.781.781.781h10.625c.432 0 .781-.35.781-.781v-3.028a6.1 6.1 0 0 0-3.545-5.533ZM3.906 27.37a2.19 2.19 0 0 1 2.188-2.188 2.19 2.19 0 0 1 2.187 2.188v.54a2.19 2.19 0 0 1-2.187 2.187 2.19 2.19 0 0 1-2.188-2.187v-.54Zm6.719 11.068H1.562v-2.247a4.536 4.536 0 0 1 4.532-4.531 4.536 4.536 0 0 1 4.531 4.531v2.247ZM36.454 30.659a3.74 3.74 0 0 0 1.202-2.748v-.54a3.754 3.754 0 0 0-3.75-3.75 3.754 3.754 0 0 0-3.75 3.75v.54a3.74 3.74 0 0 0 1.202 2.748 6.1 6.1 0 0 0-3.546 5.533v3.028c0 .431.35.781.782.781h10.625c.431 0 .781-.35.781-.781v-3.028a6.1 6.1 0 0 0-3.546-5.533ZM31.72 27.37a2.19 2.19 0 0 1 2.187-2.188 2.19 2.19 0 0 1 2.188 2.188v.54a2.19 2.19 0 0 1-2.188 2.187 2.19 2.19 0 0 1-2.187-2.187v-.54Zm6.718 11.068h-9.062v-2.247a4.536 4.536 0 0 1 4.531-4.531 4.536 4.536 0 0 1 4.532 4.531v2.247Z"/><path fill="#1E8E31" d="M26.21 0H13.788a.781.781 0 0 0-.781.781v2.15a3.414 3.414 0 0 0 2.766 3.347 4.37 4.37 0 0 0 3.45 3.197v1.514h-1.226a.781.781 0 0 0 0 1.563h4.017a.781.781 0 1 0 0-1.563h-1.228V9.473a4.37 4.37 0 0 0 3.438-3.195 3.414 3.414 0 0 0 2.766-3.347V.78A.781.781 0 0 0 26.209 0ZM15.634 4.604A1.849 1.849 0 0 1 14.57 2.93V1.562h1.065v3.042Zm7.166.583a2.798 2.798 0 0 1-2.795 2.795h-.013a2.798 2.798 0 0 1-2.795-2.795V1.562H22.8v3.625Zm2.627-2.256c0 .739-.436 1.378-1.065 1.673V1.562h1.065v1.369ZM36.406 9.219a.781.781 0 0 0-.781.781v.971a.781.781 0 1 0 1.563 0V10a.781.781 0 0 0-.782-.781ZM36.406 13.873a.781.781 0 0 0-.781.781v.971a.781.781 0 1 0 1.563 0v-.97a.781.781 0 0 0-.782-.782ZM39.22 12.031h-.972a.781.781 0 0 0 0 1.563h.971a.781.781 0 0 0 0-1.563ZM34.565 12.031h-.971a.781.781 0 0 0 0 1.563h.97a.781.781 0 0 0 0-1.563ZM3.594 1.406a.781.781 0 0 0-.781.782v.97a.781.781 0 0 0 1.562 0v-.97a.781.781 0 0 0-.781-.782ZM3.594 6.06a.781.781 0 0 0-.781.782v.97a.781.781 0 0 0 1.562 0v-.97a.781.781 0 0 0-.781-.781ZM6.407 4.219h-.971a.781.781 0 0 0 0 1.562h.97a.781.781 0 0 0 0-1.562ZM1.752 4.219h-.97a.781.781 0 0 0 0 1.562h.97a.781.781 0 0 0 0-1.562Z"/></g><defs><clipPath id="a"><path fill="#fff" d="M0 0h40v40H0z"/></clipPath></defs></svg>