<svg xmlns="http://www.w3.org/2000/svg" width="40" height="40" fill="none"><g fill="#1E8E31" clip-path="url(#a)"><path d="M37 34.261a3.13 3.13 0 0 0 1.125-2.386v-5a6.238 6.238 0 0 0-2.5-4.988V8.125h-10v-5h-2.5v-1.25h-1.25v1.25h-1.25v-2.5h-1.25v2.5h-1.25v-1.25h-1.25v1.25h-2.5v5h-10v13.762a6.238 6.238 0 0 0-2.5 4.988v8.407a5.418 5.418 0 0 0-1.25 3.468v.625h38.749l.001-.624A5.405 5.405 0 0 0 37 34.26Zm-.125-7.386v5a1.88 1.88 0 0 1-1.182 1.736 5.478 5.478 0 0 0-.42-.124l-1.007-.252-.145-.576A3.118 3.118 0 0 0 35.625 30v-3.75H35c-.964 0-1.86-.48-2.395-1.282l-.105-.157v-1.686h-1.25v1.686l-.105.157a2.873 2.873 0 0 1-2.395 1.282h-.625V30c0 1.128.606 2.109 1.504 2.658l-.145.576-1 .248c-.146.037-.289.08-.43.127a1.88 1.88 0 0 1-1.179-1.734v-5c0-2.757 2.243-5 5-5s5 2.243 5 5ZM25 25.471c0 .162-.025.318-.046.477a2.466 2.466 0 0 0-1.204-.323h-.733a3.617 3.617 0 0 1-2.575-1.067L20 24.116l-.442.442a3.618 3.618 0 0 1-2.575 1.067h-.733c-.439 0-.845.123-1.204.323-.021-.159-.046-.316-.046-.477a3.6 3.6 0 0 1 3.596-3.596h2.808A3.6 3.6 0 0 1 25 25.471Zm.938 9.469a5.405 5.405 0 0 0-2.54-1.453l-1.007-.251-.145-.577a3.125 3.125 0 0 0 1.44-2.033h.064c.75 0 1.416-.34 1.875-.864v2.113c0 .94.434 1.803 1.124 2.386a5.399 5.399 0 0 0-.81.679Zm-11.563-.296v-4.883a2.483 2.483 0 0 0 1.875.864h.063a3.122 3.122 0 0 0 1.44 2.033l-.144.576-1 .248a5.413 5.413 0 0 0-2.234 1.162Zm1.875-5.269a1.251 1.251 0 0 1 0-2.5v2.5Zm4.375 2.5h-1.25A1.877 1.877 0 0 1 17.5 30v-3.152a4.84 4.84 0 0 0 2.5-1.014 4.846 4.846 0 0 0 2.5 1.014V30a1.877 1.877 0 0 1-1.875 1.875Zm-1.689 1.206c.145.02.289.044.439.044h1.25c.15 0 .294-.024.439-.044l.133.531L20 35.209l-1.197-1.596.133-.531Zm4.814-6.206a1.251 1.251 0 0 1 0 2.5v-2.5Zm-6.839 7.821.963-.24L20 37.293l2.126-2.834.968.242a4.156 4.156 0 0 1 3.104 3.425H13.802a4.153 4.153 0 0 1 3.11-3.429Zm9.809 1.25a4.17 4.17 0 0 1 2.066-1.25l.605-.151a6.964 6.964 0 0 0 1.165 3.58H27.46a5.39 5.39 0 0 0-.741-2.179Zm5.155-9.877a4.114 4.114 0 0 0 2.5 1.384V30a1.877 1.877 0 0 1-1.875 1.875h-1.25A1.877 1.877 0 0 1 29.375 30v-2.547a4.113 4.113 0 0 0 2.5-1.384Zm-.625 7.056h1.25c.15 0 .294-.024.439-.044l.186.745v.397c0 .051-.006.1-.008.152h-2.484c-.002-.05-.008-.1-.008-.152v-.397l.186-.745c.145.02.289.044.439.044Zm-.448 2.5h2.145a5.702 5.702 0 0 1-1.072 2.182 5.702 5.702 0 0 1-1.073-2.182Zm3.573-14.474a6.207 6.207 0 0 0-2.5-.526 6.26 6.26 0 0 0-5.744 3.79 4.858 4.858 0 0 0-3.006-3.469V9.375h11.25v11.776Zm-12.5-13.026v12.524a4.885 4.885 0 0 0-.471-.024h-2.808c-1.12 0-2.15.386-2.971 1.026V6.875h8.75v1.25h-2.5Zm2.5-3.75v1.25h-8.75v-1.25h8.75Zm-18.75 5h8.75v13.724c-.23.407-.401.849-.506 1.317a6.259 6.259 0 0 0-5.744-3.791c-.889 0-1.734.19-2.5.526V9.375Zm2.5 12.5c2.757 0 5 2.243 5 5v7.308a5.419 5.419 0 0 0-1.602-.696l-1.007-.252-.145-.576A3.118 3.118 0 0 0 11.875 30v-3.75h-2.15a2.359 2.359 0 0 1-1.967-1.053 1.845 1.845 0 0 0-3.383 1.023V30c0 1.128.606 2.109 1.504 2.658l-.145.576-1 .248a5.446 5.446 0 0 0-1.609.694v-7.301c0-2.757 2.243-5 5-5Zm.625 10H7.5A1.877 1.877 0 0 1 5.625 30v-3.78a.596.596 0 0 1 1.093-.33 3.606 3.606 0 0 0 3.007 1.61h.9V30a1.877 1.877 0 0 1-1.875 1.875Zm-1.689 1.206c.145.02.289.044.439.044h1.25c.15 0 .294-.024.439-.044l.181.723A1.25 1.25 0 0 1 8.125 35c-.67 0-1.216-.532-1.244-1.196l.18-.723Zm-2.025 1.615.722-.18a2.494 2.494 0 0 0 2.367 1.734c1.11 0 2.04-.73 2.367-1.733l.727.183c.797.2 1.508.644 2.06 1.249a5.42 5.42 0 0 0-.74 2.177H1.92a4.158 4.158 0 0 1 3.116-3.43Zm28.158 3.429a6.965 6.965 0 0 0 1.165-3.578l.61.152a4.162 4.162 0 0 1 3.111 3.425l-4.886.001Z"/><path d="M16.875 8.125h1.25v1.25h-1.25v-1.25ZM19.375 8.125h1.25v1.25h-1.25v-1.25ZM16.875 10.625h1.25v1.25h-1.25v-1.25ZM19.375 10.625h1.25v1.25h-1.25v-1.25ZM19.375 13.125h1.25v1.25h-1.25v-1.25ZM16.875 13.125h1.25v1.25h-1.25v-1.25ZM16.875 15.625h1.25v1.25h-1.25v-1.25ZM19.375 15.625h1.25v1.25h-1.25v-1.25ZM19.375 18.125h1.25v1.25h-1.25v-1.25ZM16.875 18.125h1.25v1.25h-1.25v-1.25ZM24.375 10.625h1.25v1.25h-1.25v-1.25ZM24.375 15.625h1.25v1.25h-1.25v-1.25ZM24.375 13.125h1.25v1.25h-1.25v-1.25ZM24.375 18.125h1.25v1.25h-1.25v-1.25ZM26.875 10.625h1.25v1.25h-1.25v-1.25ZM26.875 18.125h1.25v1.25h-1.25v-1.25ZM26.875 15.625h1.25v1.25h-1.25v-1.25ZM26.875 13.125h1.25v1.25h-1.25v-1.25ZM29.375 10.625h1.25v1.25h-1.25v-1.25ZM29.375 13.125h1.25v1.25h-1.25v-1.25ZM29.375 15.625h1.25v1.25h-1.25v-1.25ZM29.375 18.125h1.25v1.25h-1.25v-1.25ZM31.875 10.625h1.25v1.25h-1.25v-1.25ZM31.875 15.625h1.25v1.25h-1.25v-1.25ZM31.875 13.125h1.25v1.25h-1.25v-1.25ZM31.875 18.125h1.25v1.25h-1.25v-1.25ZM6.875 18.125h1.25v1.25h-1.25v-1.25ZM6.875 13.125h1.25v1.25h-1.25v-1.25ZM6.875 10.625h1.25v1.25h-1.25v-1.25ZM6.875 15.625h1.25v1.25h-1.25v-1.25ZM9.375 18.125h1.25v1.25h-1.25v-1.25ZM9.375 15.625h1.25v1.25h-1.25v-1.25ZM9.375 13.125h1.25v1.25h-1.25v-1.25ZM9.375 10.625h1.25v1.25h-1.25v-1.25ZM11.875 15.625h1.25v1.25h-1.25v-1.25ZM11.875 18.125h1.25v1.25h-1.25v-1.25ZM11.875 13.125h1.25v1.25h-1.25v-1.25ZM11.875 10.625h1.25v1.25h-1.25v-1.25Z"/></g><defs><clipPath id="a"><path fill="#fff" d="M0 0h40v40H0z"/></clipPath></defs></svg>