<svg xmlns="http://www.w3.org/2000/svg" width="16" height="15" fill="none"><g clip-path="url(#a)"><mask id="b" width="16" height="15" x="0" y="0" maskUnits="userSpaceOnUse" style="mask-type:luminance"><path fill="#fff" d="M.75 0h15v15h-15V0Z"/></mask><g stroke="#fff" stroke-linecap="round" stroke-linejoin="round" stroke-miterlimit="10" stroke-width=".879" mask="url(#b)"><path d="M14.362 1.673 1.665 6.52c-.644.246-.633.618.024.827l2.852.816 1.5 4.288c.227.65.828.8 1.335.334l1.908-1.757 2.68 2.16c.545.422 1.103.214 1.24-.461l2.08-10.272c.137-.676-.278-1.028-.922-.782Z"/><path d="m4.58 8.144 7.64-3.904-4.9 5.207-.867 3.512M7.343 9.465l4.599 3.703"/></g></g><defs><clipPath id="a"><path fill="#fff" d="M.75 0h15v15h-15z"/></clipPath></defs></svg>