<svg xmlns="http://www.w3.org/2000/svg" width="15" height="15" fill="none"><path fill="#fff" fill-rule="evenodd" d="M12.924 2.08A7.05 7.05 0 0 0 7.905 0C3.995 0 .811 3.183.81 7.095c0 1.25.326 2.47.947 3.547L.75 14.319l3.762-.987a7.088 7.088 0 0 0 3.39.863h.003c3.91 0 7.094-3.183 7.095-7.095a7.051 7.051 0 0 0-2.076-5.02ZM7.905 12.998h-.002a5.89 5.89 0 0 1-3.002-.822l-.215-.128-2.232.586.596-2.176-.14-.223a5.883 5.883 0 0 1-.902-3.139 5.906 5.906 0 0 1 5.9-5.897c1.575 0 3.055.615 4.169 1.73A5.862 5.862 0 0 1 13.802 7.1a5.906 5.906 0 0 1-5.897 5.897ZM11.14 8.58c-.177-.088-1.05-.517-1.212-.576-.162-.06-.28-.089-.398.088-.119.178-.458.577-.562.695-.103.119-.207.134-.384.045-.177-.089-.748-.276-1.426-.88a5.348 5.348 0 0 1-.986-1.228c-.103-.178 0-.264.078-.362.192-.238.384-.488.443-.606.06-.119.03-.222-.015-.311-.044-.089-.399-.961-.546-1.316-.144-.346-.29-.3-.4-.305a7.08 7.08 0 0 0-.339-.006.651.651 0 0 0-.473.222c-.162.178-.62.606-.62 1.479 0 .873.635 1.716.724 1.834.088.118 1.25 1.909 3.028 2.677.423.183.753.292 1.01.373.426.135.812.116 1.118.07.34-.05 1.048-.428 1.196-.842.148-.415.148-.77.104-.844-.045-.073-.163-.118-.34-.207Z" clip-rule="evenodd"/></svg>